<mxfile host="app.diagrams.net" agent="Mozilla/5.0 (Windows NT 10.0; Win64; x64; rv:130.0) Gecko/20100101 Firefox/130.0" version="24.7.14">
  <diagram name="Page-1" id="Cf3LVYV3IRNGvJ8bjNK9">
    <mxGraphModel dx="1320" dy="1288" grid="1" gridSize="10" guides="1" tooltips="1" connect="1" arrows="1" fold="1" page="1" pageScale="1" pageWidth="850" pageHeight="1100" background="none" math="0" shadow="0">
      <root>
        <mxCell id="0" />
        <mxCell id="1" parent="0" />
        <mxCell id="Zk8h-keVInsy_jaAp7j8-1" value="&lt;div&gt;User Inputs&lt;/div&gt;&lt;div&gt;(Text, Images)&lt;br&gt;&lt;/div&gt;" style="text;html=1;align=center;verticalAlign=middle;resizable=0;points=[];autosize=1;strokeColor=none;fillColor=none;" vertex="1" parent="1">
          <mxGeometry x="70" y="183" width="100" height="40" as="geometry" />
        </mxCell>
        <mxCell id="Zk8h-keVInsy_jaAp7j8-5" style="edgeStyle=orthogonalEdgeStyle;rounded=0;orthogonalLoop=1;jettySize=auto;html=1;entryX=0;entryY=0.5;entryDx=0;entryDy=0;" edge="1" parent="1" source="Zk8h-keVInsy_jaAp7j8-2" target="Zk8h-keVInsy_jaAp7j8-3">
          <mxGeometry relative="1" as="geometry" />
        </mxCell>
        <mxCell id="Zk8h-keVInsy_jaAp7j8-2" value="Actor" style="shape=umlActor;verticalLabelPosition=bottom;verticalAlign=top;html=1;outlineConnect=0;" vertex="1" parent="1">
          <mxGeometry x="105" y="223" width="30" height="60" as="geometry" />
        </mxCell>
        <mxCell id="Zk8h-keVInsy_jaAp7j8-8" style="edgeStyle=orthogonalEdgeStyle;rounded=0;orthogonalLoop=1;jettySize=auto;html=1;" edge="1" parent="1" source="Zk8h-keVInsy_jaAp7j8-3" target="Zk8h-keVInsy_jaAp7j8-6">
          <mxGeometry relative="1" as="geometry" />
        </mxCell>
        <mxCell id="Zk8h-keVInsy_jaAp7j8-3" value="Allergen Detection System" style="rounded=1;whiteSpace=wrap;html=1;" vertex="1" parent="1">
          <mxGeometry x="220" y="223" width="120" height="60" as="geometry" />
        </mxCell>
        <mxCell id="Zk8h-keVInsy_jaAp7j8-6" value="Actor" style="shape=umlActor;verticalLabelPosition=bottom;verticalAlign=top;html=1;outlineConnect=0;" vertex="1" parent="1">
          <mxGeometry x="425" y="223" width="30" height="60" as="geometry" />
        </mxCell>
        <mxCell id="Zk8h-keVInsy_jaAp7j8-10" value="&lt;div&gt;User Inputs&lt;/div&gt;&lt;div&gt;(Text, Images)&lt;br&gt;&lt;/div&gt;" style="text;html=1;align=center;verticalAlign=middle;resizable=0;points=[];autosize=1;strokeColor=none;fillColor=none;" vertex="1" parent="1">
          <mxGeometry x="70" y="400" width="100" height="40" as="geometry" />
        </mxCell>
        <mxCell id="Zk8h-keVInsy_jaAp7j8-11" style="edgeStyle=orthogonalEdgeStyle;rounded=0;orthogonalLoop=1;jettySize=auto;html=1;entryX=0;entryY=0.5;entryDx=0;entryDy=0;" edge="1" parent="1" source="Zk8h-keVInsy_jaAp7j8-12" target="Zk8h-keVInsy_jaAp7j8-14">
          <mxGeometry relative="1" as="geometry" />
        </mxCell>
        <mxCell id="Zk8h-keVInsy_jaAp7j8-12" value="Actor" style="shape=umlActor;verticalLabelPosition=bottom;verticalAlign=top;html=1;outlineConnect=0;" vertex="1" parent="1">
          <mxGeometry x="105" y="440" width="30" height="60" as="geometry" />
        </mxCell>
        <mxCell id="Zk8h-keVInsy_jaAp7j8-13" style="edgeStyle=orthogonalEdgeStyle;rounded=0;orthogonalLoop=1;jettySize=auto;html=1;" edge="1" parent="1" source="Zk8h-keVInsy_jaAp7j8-14" target="Zk8h-keVInsy_jaAp7j8-15">
          <mxGeometry relative="1" as="geometry" />
        </mxCell>
        <mxCell id="Zk8h-keVInsy_jaAp7j8-14" value="Allergen Detection System" style="rounded=1;whiteSpace=wrap;html=1;" vertex="1" parent="1">
          <mxGeometry x="220" y="440" width="120" height="60" as="geometry" />
        </mxCell>
        <mxCell id="Zk8h-keVInsy_jaAp7j8-15" value="Actor" style="shape=umlActor;verticalLabelPosition=bottom;verticalAlign=top;html=1;outlineConnect=0;" vertex="1" parent="1">
          <mxGeometry x="425" y="440" width="30" height="60" as="geometry" />
        </mxCell>
        <mxCell id="Zk8h-keVInsy_jaAp7j8-16" value="&lt;div&gt;User Inputs&lt;/div&gt;&lt;div&gt;(Text, Images)&lt;br&gt;&lt;/div&gt;" style="text;html=1;align=center;verticalAlign=middle;resizable=0;points=[];autosize=1;strokeColor=none;fillColor=none;" vertex="1" parent="1">
          <mxGeometry x="70" y="610" width="100" height="40" as="geometry" />
        </mxCell>
        <mxCell id="Zk8h-keVInsy_jaAp7j8-17" style="edgeStyle=orthogonalEdgeStyle;rounded=0;orthogonalLoop=1;jettySize=auto;html=1;entryX=0;entryY=0.5;entryDx=0;entryDy=0;" edge="1" parent="1" source="Zk8h-keVInsy_jaAp7j8-18" target="Zk8h-keVInsy_jaAp7j8-20">
          <mxGeometry relative="1" as="geometry" />
        </mxCell>
        <mxCell id="Zk8h-keVInsy_jaAp7j8-18" value="Actor" style="shape=umlActor;verticalLabelPosition=bottom;verticalAlign=top;html=1;outlineConnect=0;" vertex="1" parent="1">
          <mxGeometry x="105" y="650" width="30" height="60" as="geometry" />
        </mxCell>
        <mxCell id="Zk8h-keVInsy_jaAp7j8-19" style="edgeStyle=orthogonalEdgeStyle;rounded=0;orthogonalLoop=1;jettySize=auto;html=1;" edge="1" parent="1" source="Zk8h-keVInsy_jaAp7j8-20" target="Zk8h-keVInsy_jaAp7j8-21">
          <mxGeometry relative="1" as="geometry" />
        </mxCell>
        <mxCell id="Zk8h-keVInsy_jaAp7j8-20" value="Allergen Detection System" style="rounded=1;whiteSpace=wrap;html=1;" vertex="1" parent="1">
          <mxGeometry x="220" y="650" width="120" height="60" as="geometry" />
        </mxCell>
        <mxCell id="Zk8h-keVInsy_jaAp7j8-21" value="Actor" style="shape=umlActor;verticalLabelPosition=bottom;verticalAlign=top;html=1;outlineConnect=0;" vertex="1" parent="1">
          <mxGeometry x="425" y="650" width="30" height="60" as="geometry" />
        </mxCell>
      </root>
    </mxGraphModel>
  </diagram>
</mxfile>
